<svg width="354" height="352" viewBox="0 0 354 352" fill="none" xmlns="http://www.w3.org/2000/svg">
<path d="M162.965 333.562C158.042 370.487 64.5199 343.05 40.064 315.345C61.5427 327.654 112.008 332.577 124.316 311.406C144.211 277.188 169.304 279.158 232.57 297.374C295.836 315.591 360.347 317.807 313.806 260.449C355.163 277.681 369.01 313.376 331.346 333.562C284.82 358.497 194.905 288.512 168.565 304.617C153.532 313.808 164.541 321.746 162.965 333.562Z" fill="#0F3457"/>
<path d="M118.901 303.283C97.7299 337.993 21.1087 304.267 8.86215 290.081C57.8502 307.714 79.9438 300.821 103.51 283.411C142.829 254.364 218.778 271.547 252.593 279.198L253.248 279.346C294.358 288.645 309.867 283.411 307.652 260.695C318.45 269.271 325.349 291.682 314.791 297.621C294.464 309.054 238.892 288.552 196.887 279.346C176.111 274.793 140.071 268.573 118.901 303.283Z" fill="#0F3457"/>
<path fill-rule="evenodd" clip-rule="evenodd" d="M105.361 35.6765L216.138 0V257.825C218.133 258.142 220.103 258.465 222.046 258.791V4.92342L227.954 11.8353V259.804C229.954 260.154 231.924 260.505 233.862 260.855V16.7396L239.771 23.6266V261.931C241.74 262.292 243.709 262.655 245.679 263.017V28.5558L251.587 35.4428V264.094C253.605 264.459 255.575 264.808 257.495 265.14V162.719L290.974 153.611V267.669C293.22 267.295 295.194 266.704 296.882 265.856V160.011L302.79 166.906V259.464C304.391 281.955 279.447 278.249 242.724 270.05C203.7 261.336 135.544 251.81 96.7452 277.188C57.604 302.789 31.7561 290.481 0 277.188C36.0497 277.659 57.0675 272.447 75.8207 266.676V96.9942L81.7288 90.0986V264.826C83.7021 264.201 85.667 263.575 87.6369 262.955V85.1878L93.545 78.2824V261.131C95.4896 260.546 97.4541 259.972 99.4531 259.416V73.3716L105.361 66.4662V35.6765ZM153.365 252.325C133.137 252.325 118.308 254.64 105.361 257.857V66.4693L182.513 83.6323V253.619C173.127 252.814 163.387 252.325 153.365 252.325Z" fill="#0F3457"/>
</svg>
