<svg width="611" height="63" viewBox="0 0 611 63" fill="none" xmlns="http://www.w3.org/2000/svg">
<path d="M586.668 58.2047C586.668 60.6724 587.073 61.1542 589.159 62.2813H571.72C573.759 61.4004 573.759 60.1023 573.759 58.2047V13.1357H555.074C552.577 13.1357 551.133 13.8894 550.092 15.8534V0C551.379 2.07322 552.577 2.71773 555.074 2.71773H605.352C607.786 2.71773 609.475 2.71773 610.335 0V15.8534C608.983 13.6433 607.786 13.1357 605.352 13.1357H586.668V58.2047Z" fill="#0F3457"/>
<path d="M469.799 58.2047V6.79433C469.799 4.46452 469.404 3.55025 467.648 2.71774H487.011C486.105 3.79642 486.105 4.66744 486.105 5.88842C486.105 6.49236 486.86 7.54925 488.37 9.0591L520.87 42.8042V6.79433C520.87 4.15824 519.869 3.30408 517.926 2.71774H535.025C533.162 3.55025 532.873 4.46452 532.873 6.79433V58.2047C532.873 60.5345 533.408 61.4004 535.025 62.2813H516.68C518.638 61.4004 518.152 60.4736 518.152 59.2238C518.152 58.6954 517.548 57.8272 516.34 56.6193L481.802 20.6094V58.2047C481.802 60.716 482.451 61.1542 484.407 62.2813H467.648C469.404 61.1542 469.799 60.5345 469.799 58.2047Z" fill="#0F3457"/>
<path d="M413.06 12.4563C401.745 12.4563 388.94 20.0237 388.94 32.4995C388.94 44.9417 401.624 52.5427 413.06 52.5427C424.377 52.5427 437.18 44.9775 437.18 32.4995C437.18 20.0957 424.468 12.4563 413.06 12.4563ZM413.06 2.0383C430.725 2.0383 449.636 13.403 449.636 32.4995C449.636 52.1026 430.682 62.621 413.06 62.621C395.324 62.621 376.484 51.7547 376.484 32.4995C376.484 13.318 395.682 2.0383 413.06 2.0383Z" fill="#0F3457"/>
<path d="M331.934 29.2156C336.391 29.2156 343.112 28.9644 345.296 24.2331C346.185 22.1578 346.249 19.6178 345.296 17.552C343.265 12.8129 336.341 12.4563 331.934 12.4563H312.344V29.2156H331.934ZM334.878 2.71774C340.739 2.71774 347.34 3.41694 352.317 6.79433C360.113 11.8064 361.464 25.5416 354.468 31.8201C351.524 34.4623 347.561 36.2364 342.578 37.1423L357.639 58.6576C359.039 60.6569 360.104 61.4004 361.489 62.2813H340.314C342.578 61.6466 342.805 60.6619 342.805 58.9973C342.805 57.8458 341.621 56.577 340.993 55.7134L328.537 38.0482H312.344V58.2047C312.344 60.8733 313.578 61.4004 315.741 62.2813H296.15C298.315 61.1542 299.434 60.9569 299.434 58.2047V6.79433C299.434 4.04214 298.315 4.04259 296.15 2.71774H334.878Z" fill="#0F3457"/>
<path d="M277.685 12.4562H240.996V26.4978H263.191C266.154 26.4978 268.282 26.4978 269.985 24.0066V40.313C268.528 37.0295 267.761 36.2364 263.191 36.2364H240.996V58.2047C240.996 60.9811 242.68 61.1542 244.393 62.2813H225.142C227.172 60.9081 228.087 60.8407 228.087 58.2047V6.79432C228.087 4.15823 227.172 3.79642 225.142 2.71773H277.685C280.703 2.71773 282.56 2.07322 284.027 0V14.9475C282.314 12.4562 280.514 12.4562 277.685 12.4562Z" fill="#0F3457"/>
<path d="M170.584 2.71774C169.338 3.30408 167.753 4.15551 167.753 6.45461C167.753 6.90757 168.281 8.00221 169.338 9.73853C173.448 15.7665 177.839 21.6512 181.681 27.8567L194.93 9.62529C195.596 8.62594 196.968 7.28872 196.968 6.00166C196.968 4.19477 195.416 3.0579 193.911 2.71774H216.189C213.162 4.32063 210.558 7.99375 208.715 10.7577L189.465 38.0482V58.2047C189.465 60.716 190.246 61.6466 192.069 62.2813H174.178C175.722 61.6466 176.556 60.3095 176.556 58.2047V38.0482L154.701 7.47376C152.749 4.68619 151.597 3.30408 149.492 2.71774H170.584Z" fill="#0F3457"/>
<path d="M117.589 39.1806L108.077 18.1182L97.4325 39.1806H117.589ZM78.8613 55.9399L99.8105 11.8901C100.561 10.4961 101.849 8.66153 101.849 7.0208C101.849 4.53493 101.132 2.71774 99.3575 2.71774H118.495C117.133 2.71774 116.117 4.83093 116.117 7.0208C116.117 8.57956 116.987 9.88306 117.702 11.2106L141.256 57.2988C142.288 59.5696 143.227 61.1542 144.993 62.2813H125.063C126.875 61.6466 126.875 60.3715 126.875 58.8841C126.875 58.1292 126.573 57.1478 125.969 55.9399L121.666 47.5602H94.0353L89.9587 55.6002C89.2038 57.1855 88.8263 58.3179 88.8263 58.9973C88.8263 60.663 89.9587 61.8928 90.9779 62.2813H74.898C76.5022 60.6771 77.8392 57.9841 78.8613 55.9399Z" fill="#0F3457"/>
<path d="M37.7085 26.0449C42.5585 26.0449 49.4853 25.5327 49.4853 19.2506C49.4853 13.0806 42.49 12.4563 37.7085 12.4563H16.0799V26.0449H37.7085ZM37.7085 51.8633C43.0153 51.8633 51.0706 50.748 51.0706 43.8234C51.0706 36.9975 42.939 35.7834 37.7085 35.7834H16.0799V51.8633H37.7085ZM35.4437 2.71774C43.8292 2.71774 54.6971 3.87658 60.1297 11.2106C65.5743 18.2886 60.3946 30.7285 51.2971 31.4804C57.6039 33.0912 63.9798 38.1439 63.9798 46.4279C63.9798 54.0831 57.867 59.1283 51.0706 61.1489C48.2774 61.9038 45.1067 62.2813 41.5586 62.2813H0C1.18662 62.2813 3.17068 60.919 3.17068 58.2047V6.79433C3.17068 4.07995 1.43279 2.71774 0 2.71774H35.4437Z" fill="#0F3457"/>
</svg>
