<svg width="853" height="177" viewBox="0 0 853 177" fill="none" xmlns="http://www.w3.org/2000/svg">
<path d="M828.668 116.205C828.668 118.672 829.074 119.154 831.159 120.281H813.72C815.759 119.4 815.759 118.102 815.759 116.205V71.1357H797.074C794.577 71.1357 793.133 71.8894 792.092 73.8534V58C793.379 60.0732 794.577 60.7177 797.074 60.7177H847.352C849.786 60.7177 851.475 60.7177 852.335 58V73.8534C850.983 71.6433 849.786 71.1357 847.352 71.1357H828.668V116.205Z" fill="#CFBC7A"/>
<path d="M711.799 116.205V64.7943C711.799 62.4645 711.404 61.5502 709.648 60.7177H729.011C728.105 61.7964 728.105 62.6674 728.105 63.8884C728.105 64.4924 728.86 65.5493 730.37 67.0591L762.87 100.804V64.7943C762.87 62.1582 761.869 61.3041 759.926 60.7177H777.025C775.162 61.5502 774.873 62.4645 774.873 64.7943V116.205C774.873 118.534 775.408 119.4 777.025 120.281H758.68C760.638 119.4 760.152 118.474 760.152 117.224C760.152 116.695 759.548 115.827 758.34 114.619L723.802 78.6094V116.205C723.802 118.716 724.451 119.154 726.407 120.281H709.648C711.404 119.154 711.799 118.534 711.799 116.205Z" fill="#CFBC7A"/>
<path d="M655.06 70.4563C643.745 70.4563 630.94 78.0237 630.94 90.4995C630.94 102.942 643.624 110.543 655.06 110.543C666.377 110.543 679.18 102.978 679.18 90.4995C679.18 78.0957 666.468 70.4563 655.06 70.4563ZM655.06 60.0383C672.725 60.0383 691.636 71.403 691.636 90.4995C691.636 110.103 672.682 120.621 655.06 120.621C637.324 120.621 618.484 109.755 618.484 90.4995C618.484 71.318 637.682 60.0383 655.06 60.0383Z" fill="#CFBC7A"/>
<path d="M573.934 87.2156C578.391 87.2156 585.112 86.9644 587.296 82.2331C588.185 80.1578 588.249 77.6178 587.296 75.552C585.265 70.8129 578.341 70.4563 573.934 70.4563H554.344V87.2156H573.934ZM576.878 60.7177C582.739 60.7177 589.34 61.4169 594.317 64.7943C602.113 69.8064 603.464 83.5416 596.468 89.8201C593.524 92.4623 589.561 94.2364 584.578 95.1423L599.639 116.658C601.039 118.657 602.104 119.4 603.489 120.281H582.314C584.578 119.647 584.805 118.662 584.805 116.997C584.805 115.846 583.621 114.577 582.993 113.713L570.537 96.0482H554.344V116.205C554.344 118.873 555.578 119.4 557.741 120.281H538.15C540.315 119.154 541.434 118.957 541.434 116.205V64.7943C541.434 62.0421 540.315 62.0426 538.15 60.7177H576.878Z" fill="#CFBC7A"/>
<path d="M519.685 70.4563H482.996V84.4978H505.191C508.154 84.4978 510.282 84.4978 511.985 82.0066V98.313C510.528 95.0295 509.761 94.2364 505.191 94.2364H482.996V116.205C482.996 118.981 484.68 119.154 486.393 120.281H467.142C469.172 118.908 470.087 118.841 470.087 116.205V64.7943C470.087 62.1582 469.172 61.7964 467.142 60.7177H519.685C522.703 60.7177 524.56 60.0732 526.027 58V72.9475C524.314 70.4562 522.514 70.4563 519.685 70.4563Z" fill="#CFBC7A"/>
<path d="M412.584 60.7177C411.338 61.3041 409.753 62.1555 409.753 64.4546C409.753 64.9076 410.281 66.0022 411.338 67.7385C415.448 73.7665 419.839 79.6512 423.681 85.8567L436.93 67.6253C437.596 66.6259 438.968 65.2887 438.968 64.0017C438.968 62.1948 437.416 61.0579 435.911 60.7177H458.189C455.162 62.3206 452.558 65.9937 450.715 68.7577L431.465 96.0482V116.205C431.465 118.716 432.246 119.647 434.069 120.281H416.178C417.722 119.647 418.556 118.31 418.556 116.205V96.0482L396.701 65.4738C394.749 62.6862 393.597 61.3041 391.492 60.7177H412.584Z" fill="#CFBC7A"/>
<path d="M359.589 97.1806L350.077 76.1182L339.432 97.1806H359.589ZM320.861 113.94L341.81 69.8901C342.561 68.4961 343.849 66.6615 343.849 65.0208C343.849 62.5349 343.132 60.7177 341.358 60.7177H360.495C359.133 60.7177 358.117 62.8309 358.117 65.0208C358.117 66.5796 358.987 67.8831 359.702 69.2106L383.256 115.299C384.288 117.57 385.227 119.154 386.993 120.281H367.063C368.875 119.647 368.875 118.371 368.875 116.884C368.875 116.129 368.573 115.148 367.969 113.94L363.666 105.56H336.035L331.959 113.6C331.204 115.186 330.826 116.318 330.826 116.997C330.826 118.663 331.959 119.893 332.978 120.281H316.898C318.502 118.677 319.839 115.984 320.861 113.94Z" fill="#CFBC7A"/>
<path d="M279.708 84.0449C284.558 84.0449 291.485 83.5327 291.485 77.2506C291.485 71.0806 284.49 70.4563 279.708 70.4563H258.08V84.0449H279.708ZM279.708 109.863C285.015 109.863 293.071 108.748 293.071 101.823C293.071 94.9975 284.939 93.7834 279.708 93.7834H258.08V109.863H279.708ZM277.444 60.7177C285.829 60.7177 296.697 61.8766 302.13 69.2106C307.574 76.2886 302.395 88.7285 293.297 89.4803C299.604 91.0912 305.98 96.1439 305.98 104.428C305.98 112.083 299.867 117.128 293.071 119.149C290.277 119.904 287.107 120.281 283.559 120.281H242C243.187 120.281 245.171 118.919 245.171 116.205V64.7943C245.171 62.0799 243.433 60.7177 242 60.7177H277.444Z" fill="#CFBC7A"/>
<path d="M81.883 167.468C79.4213 185.931 32.6603 172.213 20.4324 158.36C31.1718 164.514 56.4043 166.976 62.5586 156.391C72.5058 139.281 85.0522 140.266 116.685 149.375C148.318 158.483 180.574 159.591 157.303 130.912C177.982 139.528 184.906 157.375 166.073 167.468C142.81 179.936 97.8531 144.944 84.683 152.996C77.1666 157.592 82.6707 161.56 81.883 167.468Z" fill="#CFBC7A"/>
<path d="M59.8507 152.329C49.2653 169.684 10.9547 152.821 4.83147 145.728C29.3255 154.544 40.3723 151.098 52.1553 142.393C71.8148 127.869 109.789 136.461 126.697 140.286L127.024 140.361C147.58 145.01 155.334 142.393 154.226 131.035C159.626 135.323 163.075 146.528 157.796 149.498C147.632 155.215 119.846 144.963 98.8439 140.361C88.4559 138.084 70.436 134.974 59.8507 152.329Z" fill="#CFBC7A"/>
<path fill-rule="evenodd" clip-rule="evenodd" d="M53.081 18.5257L108.469 0.6875V129.6C109.467 129.758 110.452 129.92 111.423 130.083V3.14921L114.378 6.60516V130.589C115.378 130.764 116.362 130.94 117.332 131.115V9.05731L120.286 12.5008V131.653C121.27 131.834 122.255 132.015 123.24 132.196V14.9654L126.194 18.4089V132.735C127.203 132.917 128.188 133.092 129.148 133.257V82.047L145.887 77.4928V134.522C147.01 134.335 147.998 134.04 148.841 133.616V80.6931L151.796 84.1406V130.419C152.596 141.665 140.124 139.812 121.762 135.712C102.25 131.356 68.1722 126.592 48.773 139.281C29.2024 152.082 16.2784 145.928 0.400391 139.281C18.4252 139.517 28.9341 136.911 38.3107 134.025V49.1846L41.2648 45.7368V133.1C42.2514 132.788 43.2339 132.475 44.2188 132.165V43.2814L47.1729 39.8287V131.253C48.1452 130.96 49.1275 130.673 50.1269 130.395V37.3733L53.081 33.9206V18.5257ZM77.0826 126.85C66.969 126.85 59.5546 128.007 53.081 129.616V33.9222L91.6571 42.5036V127.497C86.9639 127.094 82.0939 126.85 77.0826 126.85Z" fill="#CFBC7A"/>
</svg>
